<svg width="30" height="30" viewBox="0 0 49 49" fill="none" xmlns="http://www.w3.org/2000/svg">
<path fill-rule="evenodd" clip-rule="evenodd" d="M37.3549 24.4387C36.6607 25.7046 35.3132 26.5416 33.782 26.5416H18.5716L16.3257 30.625H40.8258V34.7083H16.3257C13.2224 34.7083 11.2624 31.3804 12.7528 28.6446L15.5091 23.6629L8.15908 8.16665H4.07574V4.08331H10.752L12.6712 8.16665H42.8878C44.4395 8.16665 45.4195 9.84081 44.6641 11.1883L37.3549 24.4387ZM39.4171 12.25H14.6108L19.4496 22.4583H33.7821L39.4171 12.25ZM16.3258 36.75C14.0799 36.75 12.2628 38.5875 12.2628 40.8333C12.2628 43.0792 14.0799 44.9167 16.3258 44.9167C18.5716 44.9167 20.4091 43.0792 20.4091 40.8333C20.4091 38.5875 18.5716 36.75 16.3258 36.75ZM32.6795 40.8333C32.6795 38.5875 34.4965 36.75 36.7424 36.75C38.9882 36.75 40.8257 38.5875 40.8257 40.8333C40.8257 43.0792 38.9882 44.9167 36.7424 44.9167C34.4965 44.9167 32.6795 43.0792 32.6795 40.8333Z" fill="#101010"/>
</svg> 